<svg xmlns="http://www.w3.org/2000/svg" width="1200" height="620" viewBox="0 0 1200 620" role="img" aria-label="Минимални, средни и максимални цени в София">
<rect width="1200" height="620" rx="30" fill="#ffffff"/>
<text x="70" y="65" font-family="Arial,sans-serif" font-size="31" font-weight="800" fill="#0f172a">Ценови диапазон в София</text>
<text x="70" y="103" font-family="Arial,sans-serif" font-size="17" fill="#64748b">Минимална, средна и максимална наблюдавана цена</text><text x="70" y="198" font-family="Arial,sans-serif" font-size="20" font-weight="800" fill="#334155">A95</text><line x1="854.0" x2="877.4" y1="190" y2="190" stroke="#cbd5e1" stroke-width="16" stroke-linecap="round"/><circle cx="854.0" cy="190" r="11" fill="#22c55e"/><circle cx="870.0" cy="190" r="13" fill="#2563eb"/><circle cx="877.4" cy="190" r="11" fill="#0f172a"/><text x="854.0" y="232" text-anchor="middle" font-family="Arial,sans-serif" font-size="15" fill="#475569">1.60 €</text><text x="870.0" y="164" text-anchor="middle" font-family="Arial,sans-serif" font-size="16" font-weight="800" fill="#2563eb">1.63 €</text><text x="877.4" y="232" text-anchor="middle" font-family="Arial,sans-serif" font-size="15" fill="#475569">1.64 €</text><text x="70" y="323" font-family="Arial,sans-serif" font-size="20" font-weight="800" fill="#334155">Дизел</text><line x1="988.1" x2="1023.1" y1="315" y2="315" stroke="#cbd5e1" stroke-width="16" stroke-linecap="round"/><circle cx="988.1" cy="315" r="11" fill="#22c55e"/><circle cx="1015.4" cy="315" r="13" fill="#2563eb"/><circle cx="1023.1" cy="315" r="11" fill="#0f172a"/><text x="988.1" y="357" text-anchor="middle" font-family="Arial,sans-serif" font-size="15" fill="#475569">1.83 €</text><text x="1015.4" y="289" text-anchor="middle" font-family="Arial,sans-serif" font-size="16" font-weight="800" fill="#2563eb">1.88 €</text><text x="1023.1" y="357" text-anchor="middle" font-family="Arial,sans-serif" font-size="15" fill="#475569">1.89 €</text><text x="70" y="448" font-family="Arial,sans-serif" font-size="20" font-weight="800" fill="#334155">LPG</text><line x1="311.9" x2="311.9" y1="440" y2="440" stroke="#cbd5e1" stroke-width="16" stroke-linecap="round"/><circle cx="311.9" cy="440" r="11" fill="#22c55e"/><circle cx="311.9" cy="440" r="13" fill="#2563eb"/><circle cx="311.9" cy="440" r="11" fill="#0f172a"/><text x="311.9" y="482" text-anchor="middle" font-family="Arial,sans-serif" font-size="15" fill="#475569">0.67 €</text><text x="311.9" y="414" text-anchor="middle" font-family="Arial,sans-serif" font-size="16" font-weight="800" fill="#2563eb">0.67 €</text><text x="311.9" y="482" text-anchor="middle" font-family="Arial,sans-serif" font-size="15" fill="#475569">0.67 €</text></svg>