<svg xmlns="http://www.w3.org/2000/svg" width="1200" height="620" viewBox="0 0 1200 620" role="img" aria-label="Минимални, средни и максимални цени в София">
<rect width="1200" height="620" rx="30" fill="#ffffff"/>
<text x="70" y="65" font-family="Arial,sans-serif" font-size="31" font-weight="800" fill="#0f172a">Ценови диапазон в София</text>
<text x="70" y="103" font-family="Arial,sans-serif" font-size="17" fill="#64748b">Минимална, средна и максимална наблюдавана цена</text><text x="70" y="198" font-family="Arial,sans-serif" font-size="20" font-weight="800" fill="#334155">A95</text><line x1="793.7" x2="874.0" y1="190" y2="190" stroke="#cbd5e1" stroke-width="16" stroke-linecap="round"/><circle cx="793.7" cy="190" r="11" fill="#22c55e"/><circle cx="856.1" cy="190" r="13" fill="#2563eb"/><circle cx="874.0" cy="190" r="11" fill="#0f172a"/><text x="793.7" y="232" text-anchor="middle" font-family="Arial,sans-serif" font-size="15" fill="#475569">1.49 €</text><text x="856.1" y="164" text-anchor="middle" font-family="Arial,sans-serif" font-size="16" font-weight="800" fill="#2563eb">1.60 €</text><text x="874.0" y="232" text-anchor="middle" font-family="Arial,sans-serif" font-size="15" fill="#475569">1.63 €</text><text x="70" y="323" font-family="Arial,sans-serif" font-size="20" font-weight="800" fill="#334155">Дизел</text><line x1="937.1" x2="1023.1" y1="315" y2="315" stroke="#cbd5e1" stroke-width="16" stroke-linecap="round"/><circle cx="937.1" cy="315" r="11" fill="#22c55e"/><circle cx="999.4" cy="315" r="13" fill="#2563eb"/><circle cx="1023.1" cy="315" r="11" fill="#0f172a"/><text x="937.1" y="357" text-anchor="middle" font-family="Arial,sans-serif" font-size="15" fill="#475569">1.74 €</text><text x="999.4" y="289" text-anchor="middle" font-family="Arial,sans-serif" font-size="16" font-weight="800" fill="#2563eb">1.85 €</text><text x="1023.1" y="357" text-anchor="middle" font-family="Arial,sans-serif" font-size="15" fill="#475569">1.89 €</text><text x="70" y="448" font-family="Arial,sans-serif" font-size="20" font-weight="800" fill="#334155">LPG</text><line x1="311.9" x2="317.6" y1="440" y2="440" stroke="#cbd5e1" stroke-width="16" stroke-linecap="round"/><circle cx="311.9" cy="440" r="11" fill="#22c55e"/><circle cx="316.9" cy="440" r="13" fill="#2563eb"/><circle cx="317.6" cy="440" r="11" fill="#0f172a"/><text x="311.9" y="482" text-anchor="middle" font-family="Arial,sans-serif" font-size="15" fill="#475569">0.65 €</text><text x="316.9" y="414" text-anchor="middle" font-family="Arial,sans-serif" font-size="16" font-weight="800" fill="#2563eb">0.66 €</text><text x="317.6" y="482" text-anchor="middle" font-family="Arial,sans-serif" font-size="15" fill="#475569">0.66 €</text></svg>