<svg xmlns="http://www.w3.org/2000/svg" viewBox="0 0 114.01 150.9"><title>Lukoil logo</title><rect width="114.01" height="114.25" style="fill:#df3a40"/><path d="M556.44,458.38,543.69,479a6.23,6.23,0,0,0-.54,5.9l19.37,49.54H482.31a12.69,12.69,0,0,1-12.77-12.66l-.07-66c.2-8.52,12.6-8.67,12.84,0v61.82a4.15,4.15,0,0,0,4,4.12H545l-15.21-35.8a14.84,14.84,0,0,1-.67-4.1,15.17,15.17,0,0,1,1.66-5.91l14-23a6.48,6.48,0,0,1,5.59-3.56,6.13,6.13,0,0,1,6.6,5.93,8.67,8.67,0,0,1-.52,3.07" transform="translate(-454.99 -436.55)" style="fill:#fff"/><path d="M512.2,500V455.8c0-8.64,12.59-8.7,12.73,0v44.72c0,10.23-7.65,17-17,17a16.61,16.61,0,0,1-17-17V455.8c0-8.64,12.73-8.64,12.73,0V500c0,5.93,8.57,6.29,8.57,0" transform="translate(-454.99 -436.55)" style="fill:#fff"/><polygon points="0.07 127.22 6.44 127.22 6.44 144.5 13.26 144.5 13.26 149.96 0.07 149.96 0.07 127.22"/><path d="M470.81,577.31V563.77h6.37v13.41c0,1.4.26,4.51,3.64,4.51s3.64-3.12,3.64-4.51V563.77h6.37v13.54c0,2.44-.52,9.84-10,9.84s-10-7.41-10-9.84" transform="translate(-454.99 -436.55)"/><polygon points="39.98 127.22 46.35 127.22 46.35 136.77 53.2 127.22 60.67 127.22 52.03 138.23 60.9 149.96 52.94 149.96 46.35 140.18 46.35 149.96 39.98 149.96 39.98 127.22"/><rect x="89.79" y="127.22" width="6.37" height="22.74"/><polygon points="100.83 127.22 107.19 127.22 107.19 144.5 114.01 144.5 114.01 149.96 100.83 149.96 100.83 127.22"/><path d="M534.41,575.15c0-4.49-2.76-6.71-5.79-6.71s-5.78,2.23-5.78,6.71,2.76,6.71,5.78,6.71,5.79-2.23,5.79-6.71m-18.28,0c0-6.22,4-12.3,12.5-12.3s12.5,6.08,12.5,12.3-4,12.3-12.5,12.3-12.5-6.08-12.5-12.3" transform="translate(-454.99 -436.55)"/></svg>